STARTFONT 2.1
FONT -Adobe-ITC Souvenir-Demi-I-Normal--12-120-75-75-P-78-ISO8859-15
SIZE 12 75 75
FONTBOUNDINGBOX 15 15 -2 -3

STARTPROPERTIES 30
FOUNDRY "Adobe"
FAMILY_NAME "ITC Souvenir"
WEIGHT_NAME "Demi"
SLANT "I"
SETWIDTH_NAME "Normal"
ADD_STYLE_NAME ""
PIXEL_SIZE 12
POINT_SIZE 120
RESOLUTION_X 75
RESOLUTION_Y 75
SPACING "P"
AVERAGE_WIDTH 78
CHARSET_REGISTRY "ISO8859"
CHARSET_ENCODING "15"
CAP_HEIGHT 9
X_HEIGHT 6
FACE_NAME "ITC Souvenir Demi Italic"
COPYRIGHT "Copyright (c) 1984, 1987 Adobe Systems Incorporated. All Rights Reserved. Copyright (c) 1988, 1991 Digital Equipment Corporation. All Rights Reserved."
NOTICE "ITC Souvenir is a registered trademark of International Typeface Corporation.  "
_DEC_DEVICE_FONTNAMES "PS=Souvenir-DemiItalic"
_DEC_PRODUCTINFO "DECwindows Fonts V2.2, 07-Nov-1991"
RELATIVE_SETWIDTH 50
RELATIVE_WEIGHT 60
CHARSET_COLLECTIONS "ASCII ISO8859-1 ADOBE-STANDARD"
FULL_NAME "ITC Souvenir Demi Italic"
WEIGHT 10
QUAD_WIDTH 9
DEFAULT_CHAR 32
FONT_DESCENT 3
FONT_ASCENT 11
ENDPROPERTIES

CHARS 191

STARTCHAR space
ENCODING 32
SWIDTH 340 0
DWIDTH 4 0
BBX 1 1 0 0
BITMAP
00
ENDCHAR

STARTCHAR exclam
ENCODING 33
SWIDTH 380 0
DWIDTH 5 0
BBX 4 9 0 0
BITMAP
30
30
30
60
60
60
00
C0
C0
ENDCHAR

STARTCHAR quotedbl
ENCODING 34
SWIDTH 580 0
DWIDTH 6 0
BBX 4 4 1 5
BITMAP
50
50
A0
A0
ENDCHAR

STARTCHAR numbersign
ENCODING 35
SWIDTH 660 0
DWIDTH 8 0
BBX 7 8 0 0
BITMAP
14
14
7E
28
28
FC
50
50
ENDCHAR

STARTCHAR dollar
ENCODING 36
SWIDTH 680 0
DWIDTH 8 0
BBX 7 13 0 -2
BITMAP
08
08
3C
62
62
70
38
1C
0C
8C
F8
20
20
ENDCHAR

STARTCHAR percent
ENCODING 37
SWIDTH 900 0
DWIDTH 11 0
BBX 10 10 0 -1
BITMAP
6200
D200
9400
B400
6980
0B40
1240
12C0
2180
2000
ENDCHAR

STARTCHAR ampersand
ENCODING 38
SWIDTH 880 0
DWIDTH 12 0
BBX 11 9 0 0
BITMAP
1E00
3200
3200
1CE0
3C40
6E80
C700
C780
79E0
ENDCHAR

STARTCHAR quoteright
ENCODING 39
SWIDTH 320 0
DWIDTH 4 0
BBX 2 4 1 5
BITMAP
C0
C0
40
80
ENDCHAR

STARTCHAR parenleft
ENCODING 40
SWIDTH 360 0
DWIDTH 5 0
BBX 5 11 0 -2
BITMAP
18
30
60
60
C0
C0
C0
C0
60
60
30
ENDCHAR

STARTCHAR parenright
ENCODING 41
SWIDTH 360 0
DWIDTH 6 0
BBX 5 11 -1 -2
BITMAP
60
30
30
18
18
18
18
30
30
60
C0
ENDCHAR

STARTCHAR asterisk
ENCODING 42
SWIDTH 680 0
DWIDTH 8 0
BBX 5 5 1 4
BITMAP
20
A8
70
70
D8
ENDCHAR

STARTCHAR plus
ENCODING 43
SWIDTH 660 0
DWIDTH 8 0
BBX 7 7 0 0
BITMAP
10
10
10
FE
10
10
10
ENDCHAR

STARTCHAR comma
ENCODING 44
SWIDTH 340 0
DWIDTH 4 0
BBX 2 4 0 -2
BITMAP
C0
C0
40
80
ENDCHAR

STARTCHAR minus
ENCODING 45
SWIDTH 660 0
DWIDTH 8 0
BBX 6 1 0 3
BITMAP
FC
ENDCHAR

STARTCHAR period
ENCODING 46
SWIDTH 340 0
DWIDTH 4 0
BBX 2 2 0 0
BITMAP
C0
C0
ENDCHAR

STARTCHAR slash
ENCODING 47
SWIDTH 420 0
DWIDTH 6 0
BBX 5 10 0 -1
BITMAP
08
08
10
10
20
20
40
40
80
80
ENDCHAR

STARTCHAR zero
ENCODING 48
SWIDTH 680 0
DWIDTH 8 0
BBX 7 9 0 0
BITMAP
3C
66
66
C6
C6
C6
CC
CC
78
ENDCHAR

STARTCHAR one
ENCODING 49
SWIDTH 680 0
DWIDTH 8 0
BBX 4 9 1 0
BITMAP
30
F0
30
30
60
60
60
60
F0
ENDCHAR

STARTCHAR two
ENCODING 50
SWIDTH 680 0
DWIDTH 8 0
BBX 7 9 0 0
BITMAP
3C
66
66
06
0C
18
62
FC
FC
ENDCHAR

STARTCHAR three
ENCODING 51
SWIDTH 680 0
DWIDTH 8 0
BBX 7 9 0 0
BITMAP
3C
66
06
0C
3C
06
C6
CC
78
ENDCHAR

STARTCHAR four
ENCODING 52
SWIDTH 680 0
DWIDTH 8 0
BBX 7 9 0 0
BITMAP
06
0E
16
26
4C
8C
FE
0C
1E
ENDCHAR

STARTCHAR five
ENCODING 53
SWIDTH 680 0
DWIDTH 8 0
BBX 7 9 0 0
BITMAP
3E
3E
20
7C
46
06
C6
CC
78
ENDCHAR

STARTCHAR six
ENCODING 54
SWIDTH 680 0
DWIDTH 8 0
BBX 7 9 0 0
BITMAP
0E
38
60
7C
E6
C6
C6
CC
78
ENDCHAR

STARTCHAR seven
ENCODING 55
SWIDTH 680 0
DWIDTH 8 0
BBX 7 9 1 0
BITMAP
7E
FC
8C
08
18
30
30
60
E0
ENDCHAR

STARTCHAR eight
ENCODING 56
SWIDTH 680 0
DWIDTH 8 0
BBX 7 9 0 0
BITMAP
3C
66
66
34
78
CC
CC
CC
78
ENDCHAR

STARTCHAR nine
ENCODING 57
SWIDTH 680 0
DWIDTH 8 0
BBX 7 9 0 0
BITMAP
3C
66
C6
C6
CE
7C
0C
38
E0
ENDCHAR

STARTCHAR colon
ENCODING 58
SWIDTH 320 0
DWIDTH 4 0
BBX 3 6 0 0
BITMAP
60
60
00
00
C0
C0
ENDCHAR

STARTCHAR semicolon
ENCODING 59
SWIDTH 340 0
DWIDTH 4 0
BBX 3 8 0 -2
BITMAP
60
60
00
00
C0
C0
40
80
ENDCHAR

STARTCHAR less
ENCODING 60
SWIDTH 660 0
DWIDTH 8 0
BBX 7 7 0 0
BITMAP
02
0E
38
E0
38
0E
02
ENDCHAR

STARTCHAR equal
ENCODING 61
SWIDTH 660 0
DWIDTH 8 0
BBX 6 3 0 2
BITMAP
FC
00
FC
ENDCHAR

STARTCHAR greater
ENCODING 62
SWIDTH 660 0
DWIDTH 8 0
BBX 7 7 0 0
BITMAP
80
E0
38
0E
38
E0
80
ENDCHAR

STARTCHAR question
ENCODING 63
SWIDTH 520 0
DWIDTH 7 0
BBX 6 9 0 0
BITMAP
78
CC
0C
18
30
60
00
C0
C0
ENDCHAR

STARTCHAR at
ENCODING 64
SWIDTH 860 0
DWIDTH 12 0
BBX 11 9 0 0
BITMAP
0F80
3040
4720
4920
9320
9640
9B80
4040
3F80
ENDCHAR

STARTCHAR A
ENCODING 65
SWIDTH 760 0
DWIDTH 9 0
BBX 9 9 -1 0
BITMAP
0400
0E00
1600
1600
2300
3F00
4300
4300
E780
ENDCHAR

STARTCHAR B
ENCODING 66
SWIDTH 780 0
DWIDTH 10 0
BBX 9 9 0 0
BITMAP
7F00
3180
3180
3600
3B00
6180
6180
6300
FE00
ENDCHAR

STARTCHAR C
ENCODING 67
SWIDTH 780 0
DWIDTH 10 0
BBX 9 9 0 0
BITMAP
1F00
7180
6080
C000
C000
C000
C100
6300
3C00
ENDCHAR

STARTCHAR D
ENCODING 68
SWIDTH 860 0
DWIDTH 11 0
BBX 10 9 0 0
BITMAP
7F00
3180
30C0
30C0
60C0
60C0
6180
6380
FE00
ENDCHAR

STARTCHAR E
ENCODING 69
SWIDTH 700 0
DWIDTH 9 0
BBX 8 9 0 0
BITMAP
7F
31
30
30
3E
60
60
62
FE
ENDCHAR

STARTCHAR F
ENCODING 70
SWIDTH 640 0
DWIDTH 8 0
BBX 8 9 0 0
BITMAP
7F
31
30
30
3E
60
60
60
F0
ENDCHAR

STARTCHAR G
ENCODING 71
SWIDTH 820 0
DWIDTH 10 0
BBX 9 9 0 0
BITMAP
1F00
7180
6080
C000
C780
C180
C180
6300
3E00
ENDCHAR

STARTCHAR H
ENCODING 72
SWIDTH 880 0
DWIDTH 11 0
BBX 10 9 0 0
BITMAP
7BC0
3180
3180
3180
3F00
6300
6300
6300
F780
ENDCHAR

STARTCHAR I
ENCODING 73
SWIDTH 400 0
DWIDTH 6 0
BBX 5 9 0 0
BITMAP
78
30
30
30
60
60
60
60
F0
ENDCHAR

STARTCHAR J
ENCODING 74
SWIDTH 600 0
DWIDTH 8 0
BBX 8 9 -1 0
BITMAP
0F
06
06
06
0C
4C
CC
9C
78
ENDCHAR

STARTCHAR K
ENCODING 75
SWIDTH 780 0
DWIDTH 10 0
BBX 10 9 0 0
BITMAP
79C0
3180
3300
3600
3C00
6600
6600
6300
F380
ENDCHAR

STARTCHAR L
ENCODING 76
SWIDTH 660 0
DWIDTH 8 0
BBX 7 9 0 0
BITMAP
78
30
30
30
60
60
60
62
FE
ENDCHAR

STARTCHAR M
ENCODING 77
SWIDTH 960 0
DWIDTH 13 0
BBX 12 9 0 0
BITMAP
78F0
38E0
3960
3960
2E60
4EC0
4CC0
4CC0
E1E0
ENDCHAR

STARTCHAR N
ENCODING 78
SWIDTH 800 0
DWIDTH 11 0
BBX 10 9 0 0
BITMAP
79C0
3880
3C80
2C80
2F00
4700
4700
4300
E300
ENDCHAR

STARTCHAR O
ENCODING 79
SWIDTH 860 0
DWIDTH 11 0
BBX 10 9 0 0
BITMAP
1F00
7180
60C0
E0C0
C0C0
C1C0
C180
6380
3E00
ENDCHAR

STARTCHAR P
ENCODING 80
SWIDTH 720 0
DWIDTH 9 0
BBX 9 9 0 0
BITMAP
7F00
3180
3180
3180
3300
7C00
6000
6000
F000
ENDCHAR

STARTCHAR Q
ENCODING 81
SWIDTH 880 0
DWIDTH 11 0
BBX 10 12 0 -3
BITMAP
1F00
7180
60C0
E0C0
C0C0
C1C0
C980
6B80
3E00
0800
0700
0300
ENDCHAR

STARTCHAR R
ENCODING 82
SWIDTH 780 0
DWIDTH 10 0
BBX 9 9 0 0
BITMAP
7F00
3180
3180
3300
3C00
6600
6300
6300
F380
ENDCHAR

STARTCHAR S
ENCODING 83
SWIDTH 680 0
DWIDTH 7 0
BBX 8 9 -1 0
BITMAP
1F
31
60
78
3E
0E
06
8C
F8
ENDCHAR

STARTCHAR T
ENCODING 84
SWIDTH 660 0
DWIDTH 8 0
BBX 8 9 0 0
BITMAP
FF
99
18
18
30
30
30
30
78
ENDCHAR

STARTCHAR U
ENCODING 85
SWIDTH 800 0
DWIDTH 9 0
BBX 9 9 0 0
BITMAP
F380
6100
6100
6100
C200
C200
C200
C600
7C00
ENDCHAR

STARTCHAR V
ENCODING 86
SWIDTH 720 0
DWIDTH 9 0
BBX 9 9 0 0
BITMAP
F380
6100
6100
6200
3200
3400
3400
3800
1800
ENDCHAR

STARTCHAR W
ENCODING 87
SWIDTH 1020 0
DWIDTH 13 0
BBX 13 9 0 0
BITMAP
F338
6310
6310
6720
6720
39C0
39C0
3180
3180
ENDCHAR

STARTCHAR X
ENCODING 88
SWIDTH 740 0
DWIDTH 9 0
BBX 10 9 -1 0
BITMAP
7BC0
3180
1B00
1E00
0C00
1E00
3600
6300
F780
ENDCHAR

STARTCHAR Y
ENCODING 89
SWIDTH 740 0
DWIDTH 9 0
BBX 10 9 0 0
BITMAP
F3C0
6180
6300
3600
3C00
1800
3000
3000
7800
ENDCHAR

STARTCHAR Z
ENCODING 90
SWIDTH 620 0
DWIDTH 9 0
BBX 8 9 0 0
BITMAP
7F
47
0E
1C
18
38
70
E2
FE
ENDCHAR

STARTCHAR bracketleft
ENCODING 91
SWIDTH 340 0
DWIDTH 5 0
BBX 5 11 0 -2
BITMAP
38
30
30
30
60
60
60
60
C0
C0
E0
ENDCHAR

STARTCHAR backslash
ENCODING 92
SWIDTH 660 0
DWIDTH 8 0
BBX 5 9 1 0
BITMAP
80
80
40
40
20
10
10
08
08
ENDCHAR

STARTCHAR bracketright
ENCODING 93
SWIDTH 340 0
DWIDTH 5 0
BBX 5 11 -1 -2
BITMAP
38
18
18
30
30
30
30
60
60
60
E0
ENDCHAR

STARTCHAR asciicircum
ENCODING 94
SWIDTH 660 0
DWIDTH 8 0
BBX 7 7 0 2
BITMAP
10
10
38
28
6C
44
C6
ENDCHAR

STARTCHAR underscore
ENCODING 95
SWIDTH 500 0
DWIDTH 6 0
BBX 6 1 0 -2
BITMAP
FC
ENDCHAR

STARTCHAR quoteleft
ENCODING 96
SWIDTH 320 0
DWIDTH 4 0
BBX 2 4 1 5
BITMAP
40
80
C0
C0
ENDCHAR

STARTCHAR a
ENCODING 97
SWIDTH 640 0
DWIDTH 8 0
BBX 7 6 0 0
BITMAP
36
6E
C6
CC
DC
6E
ENDCHAR

STARTCHAR b
ENCODING 98
SWIDTH 640 0
DWIDTH 8 0
BBX 7 9 0 0
BITMAP
70
30
30
6C
76
66
C6
CC
F8
ENDCHAR

STARTCHAR c
ENCODING 99
SWIDTH 540 0
DWIDTH 7 0
BBX 6 6 0 0
BITMAP
3C
64
C0
C0
C4
78
ENDCHAR

STARTCHAR d
ENCODING 100
SWIDTH 680 0
DWIDTH 8 0
BBX 8 9 0 0
BITMAP
07
03
03
36
6E
C6
CC
DC
6E
ENDCHAR

STARTCHAR e
ENCODING 101
SWIDTH 580 0
DWIDTH 8 0
BBX 7 6 0 0
BITMAP
3C
66
CE
F8
C4
78
ENDCHAR

STARTCHAR f
ENCODING 102
SWIDTH 420 0
DWIDTH 5 0
BBX 8 12 -2 -3
BITMAP
07
0D
0C
3E
18
18
18
30
30
30
B0
E0
ENDCHAR

STARTCHAR g
ENCODING 103
SWIDTH 600 0
DWIDTH 8 0
BBX 9 8 -1 -2
BITMAP
1F80
3300
6300
6600
3C00
0600
C600
7C00
ENDCHAR

STARTCHAR h
ENCODING 104
SWIDTH 680 0
DWIDTH 8 0
BBX 7 9 0 0
BITMAP
70
30
30
6C
76
66
CC
CC
CE
ENDCHAR

STARTCHAR i
ENCODING 105
SWIDTH 340 0
DWIDTH 4 0
BBX 4 9 0 0
BITMAP
30
30
00
E0
60
60
C0
C0
E0
ENDCHAR

STARTCHAR j
ENCODING 106
SWIDTH 340 0
DWIDTH 4 0
BBX 6 12 -2 -3
BITMAP
0C
0C
00
38
18
18
18
30
30
30
A0
C0
ENDCHAR

STARTCHAR k
ENCODING 107
SWIDTH 600 0
DWIDTH 7 0
BBX 7 9 0 0
BITMAP
70
30
30
66
68
78
D8
CC
CC
ENDCHAR

STARTCHAR l
ENCODING 108
SWIDTH 360 0
DWIDTH 4 0
BBX 4 9 0 0
BITMAP
70
30
30
60
60
60
C0
C0
E0
ENDCHAR

STARTCHAR m
ENCODING 109
SWIDTH 980 0
DWIDTH 12 0
BBX 11 6 0 0
BITMAP
ECC0
7760
6660
CCC0
CCC0
CCE0
ENDCHAR

STARTCHAR n
ENCODING 110
SWIDTH 680 0
DWIDTH 8 0
BBX 7 6 0 0
BITMAP
EC
76
66
CC
CC
CE
ENDCHAR

STARTCHAR o
ENCODING 111
SWIDTH 640 0
DWIDTH 8 0
BBX 7 6 0 0
BITMAP
3C
66
C6
C6
CC
78
ENDCHAR

STARTCHAR p
ENCODING 112
SWIDTH 660 0
DWIDTH 8 0
BBX 8 9 -1 -3
BITMAP
76
3B
33
33
76
6C
60
60
F0
ENDCHAR

STARTCHAR q
ENCODING 113
SWIDTH 640 0
DWIDTH 8 0
BBX 7 9 0 -3
BITMAP
36
6E
C6
CC
CC
7C
18
18
3C
ENDCHAR

STARTCHAR r
ENCODING 114
SWIDTH 460 0
DWIDTH 6 0
BBX 6 6 0 0
BITMAP
EC
74
60
C0
C0
C0
ENDCHAR

STARTCHAR s
ENCODING 115
SWIDTH 520 0
DWIDTH 7 0
BBX 6 6 0 0
BITMAP
3C
64
70
38
98
F0
ENDCHAR

STARTCHAR t
ENCODING 116
SWIDTH 420 0
DWIDTH 5 0
BBX 4 8 0 0
BITMAP
20
60
F0
60
60
C0
D0
E0
ENDCHAR

STARTCHAR u
ENCODING 117
SWIDTH 680 0
DWIDTH 8 0
BBX 7 6 0 0
BITMAP
E6
66
66
CC
DC
6E
ENDCHAR

STARTCHAR v
ENCODING 118
SWIDTH 580 0
DWIDTH 7 0
BBX 6 6 0 0
BITMAP
EC
64
64
68
68
30
ENDCHAR

STARTCHAR w
ENCODING 119
SWIDTH 840 0
DWIDTH 11 0
BBX 10 6 0 0
BITMAP
E6C0
6640
6640
6E80
6E80
3300
ENDCHAR

STARTCHAR x
ENCODING 120
SWIDTH 580 0
DWIDTH 7 0
BBX 8 6 -1 0
BITMAP
33
7C
18
18
2E
CC
ENDCHAR

STARTCHAR y
ENCODING 121
SWIDTH 560 0
DWIDTH 7 0
BBX 7 9 -1 -3
BITMAP
76
32
32
34
34
18
10
B0
E0
ENDCHAR

STARTCHAR z
ENCODING 122
SWIDTH 500 0
DWIDTH 7 0
BBX 6 6 0 0
BITMAP
7C
4C
18
30
64
FC
ENDCHAR

STARTCHAR braceleft
ENCODING 123
SWIDTH 340 0
DWIDTH 5 0
BBX 5 11 0 -2
BITMAP
18
30
30
30
20
C0
60
60
60
60
30
ENDCHAR

STARTCHAR bar
ENCODING 124
SWIDTH 660 0
DWIDTH 8 0
BBX 1 9 3 0
BITMAP
80
80
80
80
80
80
80
80
80
ENDCHAR

STARTCHAR braceright
ENCODING 125
SWIDTH 340 0
DWIDTH 6 0
BBX 5 11 -1 -2
BITMAP
60
30
30
30
30
18
20
60
60
60
C0
ENDCHAR

STARTCHAR asciitilde
ENCODING 126
SWIDTH 660 0
DWIDTH 8 0
BBX 7 2 0 3
BITMAP
76
DC
ENDCHAR

STARTCHAR space
ENCODING 160
SWIDTH 340 0
DWIDTH 4 0
BBX 1 1 0 0
BITMAP
00
ENDCHAR

STARTCHAR exclamdown
ENCODING 161
SWIDTH 380 0
DWIDTH 5 0
BBX 4 9 0 -3
BITMAP
30
30
00
60
60
60
C0
C0
C0
ENDCHAR

STARTCHAR cent
ENCODING 162
SWIDTH 660 0
DWIDTH 8 0
BBX 7 10 0 -1
BITMAP
08
08
3C
66
C0
C0
C4
78
20
20
ENDCHAR

STARTCHAR sterling
ENCODING 163
SWIDTH 660 0
DWIDTH 8 0
BBX 8 9 0 0
BITMAP
0E
13
30
30
7E
30
30
62
FC
ENDCHAR

STARTCHAR EuroSign
ENCODING 164
SWIDTH 500 0
DWIDTH 6 0
BBX 7 9 0 0
BITMAP
0E
32
20
F8
40
F0
40
44
38
ENDCHAR

STARTCHAR yen
ENCODING 165
SWIDTH 680 0
DWIDTH 8 0
BBX 9 9 0 0
BITMAP
F780
6300
6600
3C00
7E00
1800
7E00
3000
7800
ENDCHAR

STARTCHAR Scaron
ENCODING 166
SWIDTH 680 0
DWIDTH 7 0
BBX 8 12 -1 0
BITMAP
16
0C
00
1F
31
60
78
3E
0E
06
8C
F8
ENDCHAR

STARTCHAR section
ENCODING 167
SWIDTH 680 0
DWIDTH 8 0
BBX 7 11 0 -2
BITMAP
3E
62
60
38
5E
C6
F4
38
0C
8C
F8
ENDCHAR

STARTCHAR scaron
ENCODING 168
SWIDTH 520 0
DWIDTH 7 0
BBX 6 9 0 0
BITMAP
2C
18
00
3C
64
70
38
98
F0
ENDCHAR

STARTCHAR copyright
ENCODING 169
SWIDTH 840 0
DWIDTH 11 0
BBX 10 9 0 0
BITMAP
3F00
4080
9E40
A240
A040
B240
9C40
4080
3F00
ENDCHAR

STARTCHAR ordfeminine
ENCODING 170
SWIDTH 440 0
DWIDTH 7 0
BBX 6 7 0 2
BITMAP
34
4C
88
98
6C
00
FC
ENDCHAR

STARTCHAR guillemotleft
ENCODING 171
SWIDTH 460 0
DWIDTH 8 0
BBX 7 6 0 1
BITMAP
12
36
6C
D8
6C
24
ENDCHAR

STARTCHAR logicalnot
ENCODING 172
SWIDTH 660 0
DWIDTH 8 0
BBX 7 4 0 1
BITMAP
FE
02
02
02
ENDCHAR

STARTCHAR hyphen
ENCODING 173
SWIDTH 300 0
DWIDTH 5 0
BBX 4 1 0 3
BITMAP
F0
ENDCHAR

STARTCHAR registered
ENCODING 174
SWIDTH 840 0
DWIDTH 11 0
BBX 10 9 0 0
BITMAP
3F00
4080
BE40
9240
9C40
9640
BB40
4080
3F00
ENDCHAR

STARTCHAR macron
ENCODING 175
SWIDTH 480 0
DWIDTH 6 0
BBX 5 1 0 7
BITMAP
F8
ENDCHAR

STARTCHAR degree
ENCODING 176
SWIDTH 400 0
DWIDTH 5 0
BBX 4 4 0 5
BITMAP
60
90
90
60
ENDCHAR

STARTCHAR plusminus
ENCODING 177
SWIDTH 660 0
DWIDTH 8 0
BBX 7 7 0 0
BITMAP
10
10
FE
10
10
00
FE
ENDCHAR

STARTCHAR twosuperior
ENCODING 178
SWIDTH 408 0
DWIDTH 4 0
BBX 4 5 0 4
BITMAP
E0
30
60
C0
F0
ENDCHAR

STARTCHAR threesuperior
ENCODING 179
SWIDTH 408 0
DWIDTH 4 0
BBX 4 5 0 4
BITMAP
F0
30
60
30
E0
ENDCHAR

STARTCHAR Zcaron
ENCODING 180
SWIDTH 620 0
DWIDTH 9 0
BBX 8 12 0 0
BITMAP
16
0C
00
7F
47
0E
1C
18
38
70
E2
FE
ENDCHAR

STARTCHAR mu
ENCODING 181
SWIDTH 680 0
DWIDTH 8 0
BBX 8 9 -1 -3
BITMAP
73
33
33
66
6E
77
C0
C0
C0
ENDCHAR

STARTCHAR paragraph
ENCODING 182
SWIDTH 660 0
DWIDTH 10 0
BBX 10 11 0 -2
BITMAP
3FC0
6D80
CD80
CD80
DB00
7B00
1B00
1B00
3600
3600
3600
ENDCHAR

STARTCHAR periodcentered
ENCODING 183
SWIDTH 340 0
DWIDTH 4 0
BBX 2 2 0 3
BITMAP
C0
C0
ENDCHAR

STARTCHAR zcaron
ENCODING 184
SWIDTH 500 0
DWIDTH 7 0
BBX 6 9 0 0
BITMAP
2C
18
00
7C
4C
18
30
64
FC
ENDCHAR

STARTCHAR onesuperior
ENCODING 185
SWIDTH 408 0
DWIDTH 4 0
BBX 3 5 0 4
BITMAP
20
E0
40
40
E0
ENDCHAR

STARTCHAR ordmasculine
ENCODING 186
SWIDTH 440 0
DWIDTH 6 0
BBX 5 7 0 2
BITMAP
30
48
88
90
60
00
F0
ENDCHAR

STARTCHAR guillemotright
ENCODING 187
SWIDTH 460 0
DWIDTH 8 0
BBX 7 6 0 1
BITMAP
48
6C
36
6C
D8
90
ENDCHAR

STARTCHAR Ligature_OE
ENCODING 188
SWIDTH 1100 0
DWIDTH 14 0
BBX 13 9 0 0
BITMAP
1DF8
7388
6180
C180
C1F0
C300
C300
6308
3FF8
ENDCHAR

STARTCHAR Ligature_oe
ENCODING 189
SWIDTH 1000 0
DWIDTH 13 0
BBX 12 6 0 0
BITMAP
3DE0
6730
C670
C7C0
CE20
7BC0
ENDCHAR

STARTCHAR Ydiaeresis
ENCODING 190
SWIDTH 740 0
DWIDTH 9 0
BBX 10 12 0 0
BITMAP
1B00
1B00
0000
F3C0
6180
6300
3600
3C00
1800
3000
3000
7800
ENDCHAR

STARTCHAR questiondown
ENCODING 191
SWIDTH 520 0
DWIDTH 7 0
BBX 6 9 -1 -3
BITMAP
0C
0C
00
18
30
60
C0
CC
78
ENDCHAR

STARTCHAR Agrave
ENCODING 192
SWIDTH 760 0
DWIDTH 9 0
BBX 9 12 -1 0
BITMAP
1800
0C00
0000
0400
0E00
1600
1600
2300
3F00
4300
4300
E780
ENDCHAR

STARTCHAR Aacute
ENCODING 193
SWIDTH 760 0
DWIDTH 9 0
BBX 9 12 -1 0
BITMAP
0300
0600
0000
0400
0E00
1600
1600
2300
3F00
4300
4300
E780
ENDCHAR

STARTCHAR Acircumflex
ENCODING 194
SWIDTH 760 0
DWIDTH 9 0
BBX 9 12 -1 0
BITMAP
0600
0B00
0000
0400
0E00
1600
1600
2300
3F00
4300
4300
E780
ENDCHAR

STARTCHAR Atilde
ENCODING 195
SWIDTH 760 0
DWIDTH 9 0
BBX 9 12 -1 0
BITMAP
0D00
1600
0000
0400
0E00
1600
1600
2300
3F00
4300
4300
E780
ENDCHAR

STARTCHAR Adieresis
ENCODING 196
SWIDTH 760 0
DWIDTH 9 0
BBX 9 12 -1 0
BITMAP
1B00
1B00
0000
0400
0E00
1600
1600
2300
3F00
4300
4300
E780
ENDCHAR

STARTCHAR Aring
ENCODING 197
SWIDTH 760 0
DWIDTH 9 0
BBX 9 12 -1 0
BITMAP
0600
0900
0600
0400
0E00
1600
1600
2300
3F00
4300
4300
E780
ENDCHAR

STARTCHAR AE
ENCODING 198
SWIDTH 1000 0
DWIDTH 13 0
BBX 12 9 0 0
BITMAP
07F0
0B10
1300
1300
27C0
3E00
4600
4620
EFE0
ENDCHAR

STARTCHAR Ccedilla
ENCODING 199
SWIDTH 780 0
DWIDTH 10 0
BBX 9 12 0 -3
BITMAP
1F00
7180
6080
C000
C000
C000
C080
6180
3E00
1000
0800
3000
ENDCHAR

STARTCHAR Egrave
ENCODING 200
SWIDTH 700 0
DWIDTH 9 0
BBX 8 12 0 0
BITMAP
18
0C
00
7F
31
30
30
3E
60
60
62
FE
ENDCHAR

STARTCHAR Eacute
ENCODING 201
SWIDTH 700 0
DWIDTH 9 0
BBX 8 12 0 0
BITMAP
06
0C
00
7F
31
30
30
3E
60
60
62
FE
ENDCHAR

STARTCHAR Ecircumflex
ENCODING 202
SWIDTH 700 0
DWIDTH 9 0
BBX 8 12 0 0
BITMAP
0C
16
00
7F
31
30
30
3E
60
60
62
FE
ENDCHAR

STARTCHAR Edieresis
ENCODING 203
SWIDTH 700 0
DWIDTH 9 0
BBX 8 12 0 0
BITMAP
36
36
00
7F
31
30
30
3E
60
60
62
FE
ENDCHAR

STARTCHAR Igrave
ENCODING 204
SWIDTH 400 0
DWIDTH 6 0
BBX 5 12 0 0
BITMAP
60
30
00
78
30
30
30
60
60
60
60
F0
ENDCHAR

STARTCHAR Iacute
ENCODING 205
SWIDTH 400 0
DWIDTH 6 0
BBX 5 12 0 0
BITMAP
18
30
00
78
30
30
30
60
60
60
60
F0
ENDCHAR

STARTCHAR Icircumflex
ENCODING 206
SWIDTH 400 0
DWIDTH 6 0
BBX 5 12 0 0
BITMAP
30
58
00
78
30
30
30
60
60
60
60
F0
ENDCHAR

STARTCHAR Idieresis
ENCODING 207
SWIDTH 400 0
DWIDTH 6 0
BBX 6 12 0 0
BITMAP
6C
6C
00
78
30
30
30
60
60
60
60
F0
ENDCHAR

STARTCHAR Eth
ENCODING 208
SWIDTH 860 0
DWIDTH 11 0
BBX 10 9 0 0
BITMAP
7F00
3180
30C0
30C0
F8C0
60C0
6180
6380
FE00
ENDCHAR

STARTCHAR Ntilde
ENCODING 209
SWIDTH 800 0
DWIDTH 11 0
BBX 10 12 0 0
BITMAP
0D00
1600
0000
79C0
3880
3C80
2C80
2F00
4700
4700
4300
E300
ENDCHAR

STARTCHAR Ograve
ENCODING 210
SWIDTH 860 0
DWIDTH 11 0
BBX 10 12 0 0
BITMAP
0C00
0600
0000
1F00
7180
60C0
E0C0
C0C0
C1C0
C180
6380
3E00
ENDCHAR

STARTCHAR Oacute
ENCODING 211
SWIDTH 860 0
DWIDTH 11 0
BBX 10 12 0 0
BITMAP
0300
0600
0000
1F00
7180
60C0
E0C0
C0C0
C1C0
C180
6380
3E00
ENDCHAR

STARTCHAR Ocircumflex
ENCODING 212
SWIDTH 860 0
DWIDTH 11 0
BBX 10 12 0 0
BITMAP
0600
0B00
0000
1F00
7180
60C0
E0C0
C0C0
C1C0
C180
6380
3E00
ENDCHAR

STARTCHAR Otilde
ENCODING 213
SWIDTH 860 0
DWIDTH 11 0
BBX 10 12 0 0
BITMAP
0D00
1600
0000
1F00
7180
60C0
E0C0
C0C0
C1C0
C180
6380
3E00
ENDCHAR

STARTCHAR Odieresis
ENCODING 214
SWIDTH 860 0
DWIDTH 11 0
BBX 10 12 0 0
BITMAP
1980
1980
0000
1F00
7180
60C0
E0C0
C0C0
C1C0
C180
6380
3E00
ENDCHAR

STARTCHAR multiply
ENCODING 215
SWIDTH 660 0
DWIDTH 8 0
BBX 8 7 0 0
BITMAP
C3
66
3C
18
3C
66
C3
ENDCHAR

STARTCHAR Oslash
ENCODING 216
SWIDTH 860 0
DWIDTH 11 0
BBX 10 9 0 0
BITMAP
1F40
7180
61C0
C2C0
C4C0
C8C0
D180
6380
BE00
ENDCHAR

STARTCHAR Ugrave
ENCODING 217
SWIDTH 800 0
DWIDTH 9 0
BBX 9 12 0 0
BITMAP
1800
0C00
0000
F380
6100
6100
6100
C200
C200
C200
C600
7C00
ENDCHAR

STARTCHAR Uacute
ENCODING 218
SWIDTH 800 0
DWIDTH 9 0
BBX 9 12 0 0
BITMAP
0600
0C00
0000
F380
6100
6100
6100
C200
C200
C200
C600
7C00
ENDCHAR

STARTCHAR Ucircumflex
ENCODING 219
SWIDTH 800 0
DWIDTH 9 0
BBX 9 12 0 0
BITMAP
0C00
1600
0000
F380
6100
6100
6100
C200
C200
C200
C600
7C00
ENDCHAR

STARTCHAR Udieresis
ENCODING 220
SWIDTH 800 0
DWIDTH 9 0
BBX 9 12 0 0
BITMAP
3300
3300
0000
F380
6100
6100
6100
C200
C200
C200
C600
7C00
ENDCHAR

STARTCHAR Yacute
ENCODING 221
SWIDTH 740 0
DWIDTH 9 0
BBX 10 12 0 0
BITMAP
0300
0600
0000
F3C0
6180
6300
3600
3C00
1800
3000
3000
7800
ENDCHAR

STARTCHAR Thorn
ENCODING 222
SWIDTH 720 0
DWIDTH 9 0
BBX 9 9 0 0
BITMAP
7000
3F00
3180
3180
3180
6300
7C00
6000
F000
ENDCHAR

STARTCHAR germandbls
ENCODING 223
SWIDTH 640 0
DWIDTH 8 0
BBX 8 9 0 0
BITMAP
1E
33
33
66
6C
66
C6
D6
DC
ENDCHAR

STARTCHAR agrave
ENCODING 224
SWIDTH 640 0
DWIDTH 8 0
BBX 7 9 0 0
BITMAP
30
18
00
36
6E
C6
CC
DC
6E
ENDCHAR

STARTCHAR aacute
ENCODING 225
SWIDTH 640 0
DWIDTH 8 0
BBX 7 9 0 0
BITMAP
0C
18
00
36
6E
C6
CC
DC
6E
ENDCHAR

STARTCHAR acircumflex
ENCODING 226
SWIDTH 640 0
DWIDTH 8 0
BBX 7 9 0 0
BITMAP
18
2C
00
36
6E
C6
CC
DC
6E
ENDCHAR

STARTCHAR atilde
ENCODING 227
SWIDTH 640 0
DWIDTH 8 0
BBX 7 9 0 0
BITMAP
1A
2C
00
36
6E
C6
CC
DC
6E
ENDCHAR

STARTCHAR adieresis
ENCODING 228
SWIDTH 640 0
DWIDTH 8 0
BBX 7 9 0 0
BITMAP
36
36
00
36
6E
C6
CC
DC
6E
ENDCHAR

STARTCHAR aring
ENCODING 229
SWIDTH 640 0
DWIDTH 8 0
BBX 7 10 0 0
BITMAP
18
24
18
00
36
6E
C6
CC
DC
6E
ENDCHAR

STARTCHAR ae
ENCODING 230
SWIDTH 900 0
DWIDTH 12 0
BBX 11 6 0 0
BITMAP
7BC0
0E60
7CE0
CF80
9C40
F780
ENDCHAR

STARTCHAR ccedilla
ENCODING 231
SWIDTH 540 0
DWIDTH 7 0
BBX 7 9 0 -3
BITMAP
3C
66
C0
C0
C4
78
20
10
60
ENDCHAR

STARTCHAR egrave
ENCODING 232
SWIDTH 580 0
DWIDTH 8 0
BBX 7 9 0 0
BITMAP
30
18
00
3C
66
CE
F8
C4
78
ENDCHAR

STARTCHAR eacute
ENCODING 233
SWIDTH 580 0
DWIDTH 8 0
BBX 7 9 0 0
BITMAP
0C
18
00
3C
66
CE
F8
C4
78
ENDCHAR

STARTCHAR ecircumflex
ENCODING 234
SWIDTH 580 0
DWIDTH 8 0
BBX 7 9 0 0
BITMAP
18
2C
00
3C
66
CE
F8
C4
78
ENDCHAR

STARTCHAR edieresis
ENCODING 235
SWIDTH 580 0
DWIDTH 8 0
BBX 7 9 0 0
BITMAP
6C
6C
00
3C
66
CE
F8
C4
78
ENDCHAR

STARTCHAR igrave
ENCODING 236
SWIDTH 340 0
DWIDTH 4 0
BBX 3 9 0 0
BITMAP
C0
60
00
E0
60
60
C0
C0
E0
ENDCHAR

STARTCHAR iacute
ENCODING 237
SWIDTH 340 0
DWIDTH 4 0
BBX 4 9 0 0
BITMAP
30
60
00
E0
60
60
C0
C0
E0
ENDCHAR

STARTCHAR icircumflex
ENCODING 238
SWIDTH 340 0
DWIDTH 4 0
BBX 4 9 0 0
BITMAP
60
B0
00
E0
60
60
C0
C0
E0
ENDCHAR

STARTCHAR idieresis
ENCODING 239
SWIDTH 340 0
DWIDTH 4 0
BBX 5 9 0 0
BITMAP
D8
D8
00
E0
60
60
C0
C0
E0
ENDCHAR

STARTCHAR eth
ENCODING 240
SWIDTH 640 0
DWIDTH 8 0
BBX 7 9 0 0
BITMAP
6C
38
4C
3E
66
C6
C6
CC
78
ENDCHAR

STARTCHAR ntilde
ENCODING 241
SWIDTH 680 0
DWIDTH 8 0
BBX 7 9 0 0
BITMAP
1A
2C
00
EC
76
66
CC
CC
CE
ENDCHAR

STARTCHAR ograve
ENCODING 242
SWIDTH 640 0
DWIDTH 8 0
BBX 7 9 0 0
BITMAP
30
18
00
3C
66
C6
C6
CC
78
ENDCHAR

STARTCHAR oacute
ENCODING 243
SWIDTH 640 0
DWIDTH 8 0
BBX 7 9 0 0
BITMAP
0C
18
00
3C
66
C6
C6
CC
78
ENDCHAR

STARTCHAR ocircumflex
ENCODING 244
SWIDTH 640 0
DWIDTH 8 0
BBX 7 9 0 0
BITMAP
18
2C
00
3C
66
C6
C6
CC
78
ENDCHAR

STARTCHAR otilde
ENCODING 245
SWIDTH 640 0
DWIDTH 8 0
BBX 7 9 0 0
BITMAP
1A
2C
00
3C
66
C6
C6
CC
78
ENDCHAR

STARTCHAR odieresis
ENCODING 246
SWIDTH 640 0
DWIDTH 8 0
BBX 7 9 0 0
BITMAP
36
36
00
3C
66
C6
C6
CC
78
ENDCHAR

STARTCHAR divide
ENCODING 247
SWIDTH 660 0
DWIDTH 8 0
BBX 7 7 0 0
BITMAP
10
10
00
FE
00
10
10
ENDCHAR

STARTCHAR oslash
ENCODING 248
SWIDTH 640 0
DWIDTH 8 0
BBX 8 7 -1 0
BITMAP
01
1E
37
6B
73
66
BC
ENDCHAR

STARTCHAR ugrave
ENCODING 249
SWIDTH 680 0
DWIDTH 8 0
BBX 7 9 0 0
BITMAP
30
18
00
E6
66
66
CC
DC
6E
ENDCHAR

STARTCHAR uacute
ENCODING 250
SWIDTH 680 0
DWIDTH 8 0
BBX 7 9 0 0
BITMAP
0C
18
00
E6
66
66
CC
DC
6E
ENDCHAR

STARTCHAR ucircumflex
ENCODING 251
SWIDTH 680 0
DWIDTH 8 0
BBX 7 9 0 0
BITMAP
18
2C
00
E6
66
66
CC
DC
6E
ENDCHAR

STARTCHAR udieresis
ENCODING 252
SWIDTH 680 0
DWIDTH 8 0
BBX 7 9 0 0
BITMAP
36
36
00
E6
66
66
CC
DC
6E
ENDCHAR

STARTCHAR yacute
ENCODING 253
SWIDTH 560 0
DWIDTH 7 0
BBX 7 12 -1 -3
BITMAP
0C
18
00
76
32
32
34
34
18
10
B0
E0
ENDCHAR

STARTCHAR thorn
ENCODING 254
SWIDTH 660 0
DWIDTH 8 0
BBX 8 12 -1 -3
BITMAP
38
18
18
36
3B
33
33
76
6C
60
60
F0
ENDCHAR

STARTCHAR ydieresis
ENCODING 255
SWIDTH 560 0
DWIDTH 7 0
BBX 7 12 -1 -3
BITMAP
36
36
00
76
32
32
34
34
18
10
B0
E0
ENDCHAR
ENDFONT
